<svg id="图层_2" data-name="图层 2" xmlns="http://www.w3.org/2000/svg" xmlns:xlink="http://www.w3.org/1999/xlink" viewBox="0 0 260.5 184.73"><defs><style>.cls-1{fill:#38817d;}.cls-2{fill:#9cbfbe;}.cls-3{fill:url(#未命名的渐变_18);}.cls-4{fill:#fff;}</style><linearGradient id="未命名的渐变_18" x1="130.25" y1="83.69" x2="130.25" y2="184.73" gradientUnits="userSpaceOnUse"><stop offset="0" stop-color="#9cbfbe"/><stop offset="0.26" stop-color="#78a5a4"/><stop offset="0.58" stop-color="#538a89"/><stop offset="0.84" stop-color="#3c7a78"/><stop offset="1" stop-color="#347472"/></linearGradient></defs><title>LOGO</title><path class="cls-1" d="M331,215.88H244.7s-23.94-2-27.47,19.62c-1.21,7.4,1.06,12.82,7.29,18.56l-.1.13,1.52,1.13c3.74,3.23,8.43,6.54,13.73,10.24l29.64,22.1,0,0c1.57,1.92,2,3.59,2,7.1,0,6.86-12.55,7.45-12.55,7.45h-22l-12.56,20h50.22s19.62-3.53,19.62-23.54-4.8-21.85-20.66-33.2h0l-15.53-11.58c-3.29-2.54-5.67-4.39-7.71-5.75h0l-5.62-4.19a2.72,2.72,0,0,1-.5-1c-.51-2.35-1.18-5.49,5.29-5.49h76.11s30.6,1.17,30.6,38.45c0,0,.14,23-12.68,25.26-5.79,1-12.76.56-15.87-5-1.93-3.45-1.67-7.17-1.67-11.13l-.12-29.14H302v66.3h39.79a29.06,29.06,0,0,0,18.61-6.69c7.67-6.38,16.77-18.07,18.11-38C380.83,242.17,351.41,215.88,331,215.88Z" transform="translate(-152.5 -178.27)"/><polygon class="cls-2" points="133 31.47 153.4 0 121.23 0 100.58 31.47 133 31.47"/><polygon class="cls-3" points="242.45 153.74 53.75 153.74 88.55 100.05 66.31 83.69 0 184.73 260.5 184.73 242.45 153.74"/><path class="cls-4" d="M314,351.8a5.18,5.18,0,0,1-3.34,5.08,9.78,9.78,0,0,1-3.89.74q-6,0-7.86-5.49l2.18-.5a5.06,5.06,0,0,0,4,3.73,7.69,7.69,0,0,0,1.77.19,4.83,4.83,0,0,0,4-1.52,2.84,2.84,0,0,0,.64-1.9c0-1.32-.84-2.31-2.51-2.95l-1.79-.5c-2.17-.55-3.36-.86-3.56-.93a6.05,6.05,0,0,1-2.18-1.14,4.57,4.57,0,0,1-1.57-3.58,4.73,4.73,0,0,1,3.06-4.66,8.61,8.61,0,0,1,3.5-.69,6.83,6.83,0,0,1,6,2.89l.56,1c.12.26.23.54.33.83l-2.21.61a4,4,0,0,0-2.43-2.9,5.3,5.3,0,0,0-2.31-.52,4.66,4.66,0,0,0-3.29,1.16,2.53,2.53,0,0,0-.85,1.93c0,1.27.79,2.19,2.37,2.78.39.13,1.61.44,3.67.91a9.78,9.78,0,0,1,3.89,1.58A4.68,4.68,0,0,1,314,351.8Z" transform="translate(-152.5 -178.27)"/><path class="cls-4" d="M329.72,340.08h-5.51v17.26h-2.43V340.08h-5.52V338h13.46Z" transform="translate(-152.5 -178.27)"/><path class="cls-4" d="M347,357.34h-2.54L340.88,349H335.5v8.38h-2.42V338h7.25c2.48,0,4.31.72,5.46,2.15a5.18,5.18,0,0,1,1,2.54c0,.22,0,.46,0,.72a5,5,0,0,1-1.82,4.05,4.82,4.82,0,0,1-1.79.91Zm-2.62-14q0-2.89-3.2-3.26a8,8,0,0,0-.86-.05H335.5V347h4.56c2.37,0,3.76-.83,4.16-2.51A3.48,3.48,0,0,0,344.39,343.36Z" transform="translate(-152.5 -178.27)"/><path class="cls-4" d="M366.53,347.61a10.69,10.69,0,0,1-2.37,7.17,7.38,7.38,0,0,1-5.85,2.56h-6.93V338h6.13a8.74,8.74,0,0,1,5.6,1.65,8.42,8.42,0,0,1,1.07,1.08A10.18,10.18,0,0,1,366.53,347.61Zm-2.46,0a8.67,8.67,0,0,0-1.79-5.63,5.25,5.25,0,0,0-3.81-2l-1.1,0h-3.56v15.29h3.56a6,6,0,0,0,4.8-1.8c.16-.2.33-.42.5-.66A9.36,9.36,0,0,0,364.07,347.61Z" transform="translate(-152.5 -178.27)"/><path class="cls-4" d="M384,357.34h-2.49l-1.93-5.65h-7.2l-1.71,5.65h-2L374.9,338h2.79Zm-5-7.47-2.95-9.3-3,9.3Z" transform="translate(-152.5 -178.27)"/><path class="cls-4" d="M398.64,357.34H387.19V338h2.43v17.21h9Z" transform="translate(-152.5 -178.27)"/></svg>